<!DOCTYPE svg PUBLIC "-//W3C//DTD SVG 1.1//EN" "http://www.w3.org/Graphics/SVG/1.1/DTD/svg11.dtd">
<!-- Uploaded to: SVG Repo, www.svgrepo.com, Transformed by: SVG Repo Mixer Tools -->
<svg fill="#2BA84A" width="800px" height="800px" viewBox="-748.8 -748.8 3417.60 3417.60" xmlns="http://www.w3.org/2000/svg">
<g id="SVGRepo_bgCarrier" stroke-width="0">
<path transform="translate(-748.8, -748.8), scale(213.6)" fill="#2D3A3A" d="M9.166.33a2.25 2.25 0 00-2.332 0l-5.25 3.182A2.25 2.25 0 00.5 5.436v5.128a2.25 2.25 0 001.084 1.924l5.25 3.182a2.25 2.25 0 002.332 0l5.25-3.182a2.25 2.25 0 001.084-1.924V5.436a2.25 2.25 0 00-1.084-1.924L9.166.33z" strokewidth="0"/>
</g>
<g id="SVGRepo_tracerCarrier" stroke-linecap="round" stroke-linejoin="round"/>
<g id="SVGRepo_iconCarrier"> <path d="M1242.353 451.753v1016.471H757.496l-418.672 418.673v-418.673H0V451.754h1242.353ZM1920.033.033v1016.471h-225.881v419.012l-338.937-338.936V338.857H677.681V.034h1242.353ZM677.76 1016.46H338.824v112.94H677.76v-112.94Zm225.77-225.882H338.823V903.63h564.705V790.577Z" fill-rule="evenodd"/> </g>
</svg>