<!DOCTYPE svg PUBLIC "-//W3C//DTD SVG 1.1//EN" "http://www.w3.org/Graphics/SVG/1.1/DTD/svg11.dtd">
<!-- Uploaded to: SVG Repo, www.svgrepo.com, Transformed by: SVG Repo Mixer Tools -->
<svg width="800px" height="800px" viewBox="-7.44 -7.44 38.88 38.88" xmlns="http://www.w3.org/2000/svg" fill="#2BA84A" stroke="#2BA84A">
<g id="SVGRepo_bgCarrier" stroke-width="0">
<path transform="translate(-7.44, -7.44), scale(2.43)" fill="#2D3A3A" d="M9.166.33a2.25 2.25 0 00-2.332 0l-5.25 3.182A2.25 2.25 0 00.5 5.436v5.128a2.25 2.25 0 001.084 1.924l5.25 3.182a2.25 2.25 0 002.332 0l5.25-3.182a2.25 2.25 0 001.084-1.924V5.436a2.25 2.25 0 00-1.084-1.924L9.166.33z" strokewidth="0"/>
</g>
<g id="SVGRepo_tracerCarrier" stroke-linecap="round" stroke-linejoin="round"/>
<g id="SVGRepo_iconCarrier"> <title/> <g id="Complete"> <g id="edit"> <g> <path d="M20,16v4a2,2,0,0,1-2,2H4a2,2,0,0,1-2-2V6A2,2,0,0,1,4,4H8" fill="none" stroke="" stroke-linecap="round" stroke-linejoin="round" stroke-width="2.352"/> <polygon fill="none" points="12.5 15.8 22 6.2 17.8 2 8.3 11.5 8 16 12.5 15.8" stroke="" stroke-linecap="round" stroke-linejoin="round" stroke-width="2.352"/> </g> </g> </g> </g>
</svg>