<!DOCTYPE svg PUBLIC "-//W3C//DTD SVG 1.1//EN" "http://www.w3.org/Graphics/SVG/1.1/DTD/svg11.dtd">
<!-- Uploaded to: SVG Repo, www.svgrepo.com, Transformed by: SVG Repo Mixer Tools -->
<svg width="800px" height="800px" viewBox="-2.4 -2.4 28.80 28.80" fill="none" xmlns="http://www.w3.org/2000/svg">
<g id="SVGRepo_bgCarrier" stroke-width="0">
<path transform="translate(-2.4, -2.4), scale(1.7999999999999998)" fill="#040F0F" d="M9.166.33a2.25 2.25 0 00-2.332 0l-5.25 3.182A2.25 2.25 0 00.5 5.436v5.128a2.25 2.25 0 001.084 1.924l5.25 3.182a2.25 2.25 0 002.332 0l5.25-3.182a2.25 2.25 0 001.084-1.924V5.436a2.25 2.25 0 00-1.084-1.924L9.166.33z" strokewidth="0"/>
</g>
<g id="SVGRepo_tracerCarrier" stroke-linecap="round" stroke-linejoin="round"/>
<g id="SVGRepo_iconCarrier"> <path d="M12 14.2857C13.4229 14.2857 14.5714 13.1371 14.5714 11.7143V6.57143C14.5714 5.14857 13.4229 4 12 4C10.5771 4 9.42857 5.14857 9.42857 6.57143V11.7143C9.42857 13.1371 10.5771 14.2857 12 14.2857Z" fill="#2D3A3A"/> <path d="M16.5429 11.7143H18C18 14.6371 15.6686 17.0543 12.8571 17.4743V20.2857H11.1429V17.4743C8.33143 17.0543 6 14.6371 6 11.7143H7.45714C7.45714 14.2857 9.63429 16.0857 12 16.0857C14.3657 16.0857 16.5429 14.2857 16.5429 11.7143Z" fill="#2D3A3A"/> </g>
</svg>