<!DOCTYPE svg PUBLIC "-//W3C//DTD SVG 1.1//EN" "http://www.w3.org/Graphics/SVG/1.1/DTD/svg11.dtd">
<!-- Uploaded to: SVG Repo, www.svgrepo.com, Transformed by: SVG Repo Mixer Tools -->
<svg width="800px" height="800px" viewBox="-4.56 -4.56 33.12 33.12" fill="none" xmlns="http://www.w3.org/2000/svg">
<g id="SVGRepo_bgCarrier" stroke-width="0">
<path transform="translate(-4.56, -4.56), scale(2.07)" fill="#040F0F" d="M9.166.33a2.25 2.25 0 00-2.332 0l-5.25 3.182A2.25 2.25 0 00.5 5.436v5.128a2.25 2.25 0 001.084 1.924l5.25 3.182a2.25 2.25 0 002.332 0l5.25-3.182a2.25 2.25 0 001.084-1.924V5.436a2.25 2.25 0 00-1.084-1.924L9.166.33z" strokewidth="0"/>
</g>
<g id="SVGRepo_tracerCarrier" stroke-linecap="round" stroke-linejoin="round"/>
<g id="SVGRepo_iconCarrier"> <path d="M8 8C8 5.17157 8 3.75736 8.87868 2.87868C9.75736 2 11.1716 2 14 2H15C17.8284 2 19.2426 2 20.1213 2.87868C21 3.75736 21 5.17157 21 8V16C21 18.8284 21 20.2426 20.1213 21.1213C19.2426 22 17.8284 22 15 22H14C11.1716 22 9.75736 22 8.87868 21.1213C8 20.2426 8 18.8284 8 16V8Z" stroke="#2D3A3A" stroke-width="1.5"/> <path d="M8 19.5C5.64298 19.5 4.46447 19.5 3.73223 18.7678C3 18.0355 3 16.857 3 14.5V9.5C3 7.14298 3 5.96447 3.73223 5.23223C4.46447 4.5 5.64298 4.5 8 4.5" stroke="#2D3A3A" stroke-width="1.5"/> <path d="M14.5 16V8M14.5 8L17 10.5M14.5 8L12 10.5" stroke="#2D3A3A" stroke-width="1.5" stroke-linecap="round" stroke-linejoin="round"/> </g>
</svg>